<svg width="144" height="144" viewBox="0 0 144 144" fill="none" xmlns="http://www.w3.org/2000/svg">
<path d="M87.1803 99.9617C81.7558 98.0935 76.9678 94.7343 73.3651 90.2694C69.3945 85.2947 64.3387 81.2941 58.5843 78.5737C52.83 75.8532 46.5297 74.485 40.1653 74.5736C31.604 73.9673 23.1284 76.6079 16.4265 81.9695C9.72445 87.3311 5.28779 95.0203 4 103.506C6.53644 99.2618 10.3539 95.9319 14.9031 93.9953C19.4522 92.0586 24.4985 91.6151 29.3157 92.7286C34.7311 94.6512 39.5113 98.03 43.1309 102.493C47.1233 107.428 52.1887 111.387 57.9418 114.07C63.6949 116.752 69.984 118.087 76.3307 117.972C84.892 118.578 93.3675 115.938 100.07 110.576C106.772 105.215 111.208 97.5253 112.496 89.0398C110.006 93.3346 106.2 96.7148 101.642 98.6814C97.0833 100.648 92.0133 101.097 87.1803 99.9617Z" fill="#E54D7B"/>
<path d="M70.647 34.7629C104.688 18.1074 119.719 38.5602 119.719 38.5602C119.719 38.5602 132.814 35.8071 138.578 43.2803C138.578 43.2803 131.445 43.4407 128.369 48.7677C125.396 53.9175 128.917 60.0126 122.916 70.4078C109.567 93.528 84.1409 93.4609 84.1409 93.4609C109.751 80.4663 108.346 60.6743 108.346 60.6743C97.5372 66.977 60.2628 72.0611 60.2628 72.0611C84.9449 63.1188 93.1224 57.8317 93.1224 57.8317C86.8642 60.2364 61.6996 62.4795 61.6996 62.4795C77.576 58.2246 103.162 46.3195 103.162 46.3195C90.9654 31.6278 70.647 34.7629 70.647 34.7629Z" fill="#E54D7B"/>
</svg>
