<svg width="351" height="101" viewBox="0 0 351 101" fill="none" xmlns="http://www.w3.org/2000/svg">
<path d="M83.6803 72.3523C78.2558 70.4841 73.4678 67.1249 69.8651 62.66C65.8945 57.6853 60.8387 53.6848 55.0843 50.9643C49.33 48.2439 43.0297 46.8756 36.6653 46.9643C28.104 46.3579 19.6284 48.9985 12.9265 54.3601C6.22445 59.7217 1.78779 67.4109 0.5 75.8965C3.03644 71.6525 6.85392 68.3225 11.4031 66.3859C15.9522 64.4493 20.9985 64.0058 25.8157 65.1192C31.2311 67.0419 36.0113 70.4206 39.6309 74.8839C43.6233 79.8188 48.6887 83.7781 54.4418 86.4603C60.1949 89.1426 66.484 90.4772 72.8307 90.3626C81.392 90.969 89.8675 88.3284 96.5695 82.9668C103.272 77.6052 107.708 69.916 108.996 61.4304C106.506 65.7252 102.7 69.1054 98.1418 71.0721C93.5833 73.0387 88.5133 73.4876 83.6803 72.3523Z" fill="#E54D7B"/>
<path d="M67.147 7.1535C101.188 -9.50195 116.219 10.9508 116.219 10.9508C116.219 10.9508 129.314 8.19769 135.078 15.671C135.078 15.671 127.945 15.8313 124.869 21.1583C121.896 26.3082 125.417 32.4032 119.416 42.7984C106.067 65.9186 80.6409 65.8515 80.6409 65.8515C106.251 52.857 104.846 33.0649 104.846 33.0649C94.0372 39.3676 56.7628 44.4517 56.7628 44.4517C81.4449 35.5094 89.6224 30.2223 89.6224 30.2223C83.3642 32.627 58.1996 34.8701 58.1996 34.8701C74.076 30.6152 99.6623 18.7101 99.6623 18.7101C87.4654 4.0184 67.147 7.1535 67.147 7.1535Z" fill="#E54D7B"/>
<path d="M126.861 90.7813C121.236 90.7813 117.293 88.6214 116.012 85.4319C115.836 84.9798 115.761 84.578 115.761 84.2012C115.761 82.6943 116.866 81.74 118.372 81.74C119.402 81.74 120.281 82.2172 121.085 83.272C122.491 85.3063 124.099 86.2104 127.087 86.2104C130.001 86.2104 131.934 84.9798 131.934 82.9706C131.934 81.3633 130.93 80.4842 128.192 79.8564L123.873 78.8769C118.674 77.6965 116.112 75.1348 116.112 71.2671C116.112 66.3195 120.382 63.0797 126.962 63.0797C132.085 63.0797 136.053 65.5912 136.882 68.6552C136.957 68.9817 137.008 69.283 137.008 69.5844C137.008 70.8904 136.179 71.8196 134.597 71.8196C133.693 71.8196 132.788 71.4931 132.211 70.6644C130.98 68.831 129.448 67.6757 126.811 67.6757C124.074 67.6757 122.19 69.0068 122.19 70.9155C122.19 72.4726 123.345 73.5274 126.108 74.1553L130.352 75.0846C135.978 76.3654 138.213 78.3997 138.213 82.3427C138.213 87.441 133.642 90.7813 126.861 90.7813ZM145.471 90.7562C143.638 90.7562 142.332 89.5758 142.332 87.4662V56.801C142.332 54.6913 143.638 53.5109 145.471 53.5109C147.305 53.5109 148.586 54.6913 148.586 56.801V87.4662C148.586 89.5758 147.305 90.7562 145.471 90.7562ZM157.175 59.8901C155.241 59.8901 153.709 58.3832 153.709 56.4996C153.709 54.5909 155.241 53.1091 157.175 53.1091C159.134 53.1091 160.666 54.5909 160.666 56.4996C160.666 58.3832 159.134 59.8901 157.175 59.8901ZM157.175 90.7562C155.266 90.7562 154.061 89.5005 154.061 87.4662V66.3948C154.061 64.3857 155.266 63.1048 157.175 63.1048C159.084 63.1048 160.314 64.3857 160.314 66.42V87.4662C160.314 89.5005 159.084 90.7562 157.175 90.7562ZM168.677 99.7222C166.844 99.7222 165.563 98.5418 165.563 96.4321V66.3195C165.563 64.2601 166.819 63.1048 168.602 63.1048C170.385 63.1048 171.666 64.2601 171.666 66.3195V68.2282H171.792C173.299 65.1391 176.312 63.1801 180.18 63.1801C186.936 63.1801 191.231 68.4291 191.231 76.9431C191.231 85.4319 186.961 90.6809 180.28 90.6809C176.413 90.6809 173.399 88.8224 171.942 85.8337H171.817V96.4321C171.817 98.5418 170.511 99.7222 168.677 99.7222ZM178.271 85.5574C182.315 85.5574 184.826 82.2172 184.826 76.9431C184.826 71.6941 182.315 68.3287 178.271 68.3287C174.378 68.3287 171.792 71.7694 171.767 76.9431C171.792 82.1669 174.378 85.5574 178.271 85.5574ZM205.521 90.7813C199.895 90.7813 195.952 88.6214 194.671 85.4319C194.495 84.9798 194.42 84.578 194.42 84.2012C194.42 82.6943 195.525 81.74 197.032 81.74C198.062 81.74 198.941 82.2172 199.744 83.272C201.151 85.3063 202.758 86.2104 205.747 86.2104C208.66 86.2104 210.594 84.9798 210.594 82.9706C210.594 81.3633 209.589 80.4842 206.852 79.8564L202.532 78.8769C197.333 77.6965 194.772 75.1348 194.772 71.2671C194.772 66.3195 199.041 63.0797 205.621 63.0797C210.745 63.0797 214.713 65.5912 215.542 68.6552C215.617 68.9817 215.667 69.283 215.667 69.5844C215.667 70.8904 214.838 71.8196 213.256 71.8196C212.352 71.8196 211.448 71.4931 210.87 70.6644C209.64 68.831 208.108 67.6757 205.471 67.6757C202.733 67.6757 200.849 69.0068 200.849 70.9155C200.849 72.4726 202.005 73.5274 204.767 74.1553L209.012 75.0846C214.638 76.3654 216.873 78.3997 216.873 82.3427C216.873 87.441 212.302 90.7813 205.521 90.7813ZM222.549 83.6738V68.4543H220.866C219.309 68.4543 218.355 67.525 218.355 66.0181C218.355 64.5363 219.309 63.6322 220.866 63.6322H222.549V60.091C222.549 58.0818 223.754 56.8261 225.688 56.8261C227.597 56.8261 228.802 58.0818 228.802 60.091V63.6322H231.69C233.248 63.6322 234.202 64.5363 234.202 66.0181C234.202 67.525 233.248 68.4543 231.69 68.4543H228.802V82.3176C228.802 84.3268 229.506 85.2058 231.314 85.3565L231.766 85.4067C233.423 85.5574 234.277 86.2607 234.277 87.7173C234.277 89.5507 232.67 90.5302 229.807 90.5302H229.556C224.909 90.5302 222.549 88.2196 222.549 83.6738ZM241.209 90.7562C239.325 90.7562 238.095 89.5256 238.095 87.4662V66.2693C238.095 64.3103 239.3 63.1048 241.083 63.1048C242.816 63.1048 244.047 64.3103 244.047 66.2693V68.3036H244.173C244.901 65.1893 247.211 63.1801 249.874 63.1801C250.853 63.1801 251.607 63.4313 252.084 63.8582C252.661 64.3354 252.963 65.0889 252.963 66.1186C252.963 67.0981 252.661 67.8264 252.033 68.3287C251.431 68.8561 250.501 69.1324 249.271 69.1575C245.705 69.1826 244.348 71.4178 244.348 74.6576V87.4662C244.348 89.5256 243.093 90.7562 241.209 90.7562ZM266.6 90.7813C258.463 90.7813 253.666 85.683 253.666 77.0435C253.666 68.5547 258.563 63.0797 266.248 63.0797C273.532 63.0797 278.504 68.2533 278.504 75.4864C278.504 77.3449 277.45 78.4499 275.591 78.4499H259.894V78.6509C259.894 83.0962 262.481 85.9593 266.55 85.9593C269.363 85.9593 271.196 84.9798 273.205 82.4181C273.858 81.6898 274.436 81.4135 275.315 81.4135C276.721 81.4135 277.826 82.3176 277.826 83.8245C277.826 84.3017 277.676 84.8542 277.399 85.4067C275.641 88.7972 271.673 90.7813 266.6 90.7813ZM259.945 74.3311H272.376C272.251 70.4634 269.79 67.9268 266.274 67.9268C262.758 67.9268 260.196 70.5137 259.945 74.3311ZM290.359 90.6809C285.21 90.6809 281.468 87.441 281.468 82.6441C281.468 77.9225 285.11 75.0846 291.589 74.6827L298.647 74.2809V72.3722C298.647 69.5844 296.763 67.9771 293.674 67.9771C291.238 67.9771 289.655 68.8059 288.098 71.0913C287.445 71.9452 286.617 72.347 285.562 72.347C284.03 72.347 282.925 71.3425 282.925 69.8356C282.925 69.2579 283.075 68.7054 283.352 68.1278C284.708 65.0386 288.827 63.0797 293.925 63.0797C300.53 63.0797 304.825 66.5706 304.825 71.9201V87.6169C304.825 89.626 303.544 90.7562 301.786 90.7562C300.078 90.7562 298.898 89.7265 298.797 87.868V86.0095H298.672C297.14 88.8977 293.799 90.6809 290.359 90.6809ZM292.267 85.9593C295.783 85.9593 298.647 83.5985 298.647 80.3838V78.3495L292.468 78.7262C289.455 78.9271 287.722 80.2833 287.722 82.393C287.722 84.578 289.555 85.9593 292.267 85.9593ZM312.987 90.7562C311.104 90.7562 309.873 89.5507 309.873 87.4662V66.2944C309.873 64.2601 311.104 63.1048 312.862 63.1048C314.62 63.1048 315.875 64.2601 315.875 66.2944V68.2533H316.001C317.156 65.1642 319.969 63.1299 323.586 63.1299C327.353 63.1299 330.04 65.0638 331.02 68.4794H331.17C332.451 65.1893 335.616 63.1299 339.458 63.1299C344.707 63.1299 348.148 66.6711 348.148 71.9954V87.4662C348.148 89.5507 346.892 90.7562 345.034 90.7562C343.15 90.7562 341.894 89.5507 341.894 87.4662V73.5274C341.894 70.2625 340.186 68.404 337.122 68.404C334.109 68.404 332.049 70.6141 332.049 73.8037V87.4662C332.049 89.5507 330.869 90.7562 329.01 90.7562C327.127 90.7562 325.971 89.5507 325.971 87.4662V73.201C325.971 70.2374 324.163 68.404 321.25 68.404C318.236 68.404 316.126 70.7397 316.126 73.9544V87.4662C316.126 89.5507 314.846 90.7562 312.987 90.7562Z" fill="#E54D7B"/>
</svg>
